<svg xmlns="http://www.w3.org/2000/svg" viewBox="0 0 32 32"><g data-name="blog blogger blogspot post web"><path d="M26,12H24V8a5,5,0,0,0-5-5H8A5,5,0,0,0,3,8V20a1,1,0,0,0,2,0V8A3,3,0,0,1,8,5H19a3,3,0,0,1,3,3v5a1,1,0,0,0,1,1h3a1,1,0,0,1,1,1v9a3,3,0,0,1-3,3H8a3,3,0,0,1-3-3,1,1,0,0,0-2,0,5,5,0,0,0,5,5H24a5,5,0,0,0,5-5V15A3,3,0,0,0,26,12Z"/><path d="M11.5 14h4a2.5 2.5 0 0 0 0-5h-4a2.5 2.5 0 0 0 0 5zm0-3h4a.5.5 0 0 1 0 1h-4a.5.5 0 0 1 0-1zM11.5 23h9a2.5 2.5 0 0 0 0-5h-9a2.5 2.5 0 0 0 0 5zm0-3h9a.5.5 0 0 1 0 1h-9a.5.5 0 0 1 0-1z"/></g></svg>