<svg xmlns="http://www.w3.org/2000/svg" enable-background="new 0 0 122.88 35.717" viewBox="0 0 122.88 35.717"><path fill="#0077B5" fill-rule="evenodd" d="M120.226,0H2.655C1.193,0,0,1.193,0,2.655v30.408 c0,1.461,1.193,2.654,2.655,2.654h117.571c1.461,0,2.654-1.193,2.654-2.654V2.655C122.88,1.193,121.687,0,120.226,0L120.226,0 L120.226,0L120.226,0z" clip-rule="evenodd"/><polygon fill="#006AA3" points="31.935 34.785 31.935 0 33.674 0 33.674 34.785 31.935 34.785"/><path fill="#00659C" d="M47.366 26.082l-.184 2.299H41.28l.153-2.912-.153-7.006h3.127l-.169 6.699.031.705h2.928L47.366 26.082 47.366 26.082zM51.245 25.162l.123 3.219h-3.082l.153-2.912-.153-7.006h3.127L51.245 25.162 51.245 25.162zM62.176 25.146l.122 3.234h-3.342l-2.79-5.305h-.184l-.016 1.719.123 3.586h-2.79l.153-2.912-.153-7.006h3.342l2.791 5.305h.184l-.092-5.197 2.821-.17L62.176 25.146 62.176 25.146zM69.964 23.154c.939 1.471 2.013 2.998 3.219 4.584l-.046.336c-1.073.236-2.095.398-3.065.492l-.338-.186c-1.042-1.787-1.896-3.307-2.56-4.553l-.031 1.334.123 3.219h-3.082l.153-2.912-.153-7.006h3.128l-.107 4.139 1.901-3.066.521-1.072h3.251L69.964 23.154 69.964 23.154zM80.818 25.928l.168.215-.184 2.238h-6.991l.153-2.912-.153-7.006h7.113l.169.214-.199 2.239-2.438-.092h-1.579l-.031 1.395h1.519l1.594-.047.169.215-.184 2.238-1.779-.045h-1.379l-.016.582.03.859h1.472L80.818 25.928 80.818 25.928zM86.582 18.4c1.462 0 2.583.396 3.365 1.189.782.791 1.173 1.934 1.173 3.426 0 1.768-.455 3.127-1.364 4.078s-2.213 1.426-3.909 1.426c-1.063 0-2.311-.047-3.741-.139l.153-2.912-.153-7.006L86.582 18.4 86.582 18.4zM86.429 26.234c.48 0 .846-.191 1.097-.574.25-.383.375-1.014.375-1.893 0-.746-.051-1.334-.153-1.764-.102-.43-.266-.738-.49-.928s-.537-.283-.936-.283c-.388 0-.771.02-1.149.061l-.107 4.309.031.951C85.709 26.193 86.153 26.234 86.429 26.234L86.429 26.234zM95.091 25.162l.123 3.219h-3.082l.153-2.912-.153-7.006h3.127L95.091 25.162 95.091 25.162zM106.021 25.146l.123 3.234h-3.342l-2.791-5.305h-.184l-.016 1.719.123 3.586h-2.79l.153-2.912-.153-7.006h3.342l2.79 5.305h.184l-.092-5.197 2.821-.17L106.021 25.146 106.021 25.146zM42.085 9.295l-.026 1.321h.714l.986-.026.08.105-.088 1.057-1.083-.026h-.625l-.009.308.053 1.823H40.65l.079-1.683L40.65 8.176h3.558l.08.106L44.19 9.339l-1.374-.053L42.085 9.295 42.085 9.295zM47.672 8.088c.811 0 1.436.242 1.876.727s.661 1.173.661 2.065c0 .975-.241 1.73-.722 2.268-.481.538-1.16.806-2.035.806-.804 0-1.427-.248-1.867-.744-.44-.496-.66-1.199-.66-2.109 0-.963.239-1.706.718-2.228C46.121 8.35 46.797 8.088 47.672 8.088L47.672 8.088zM47.549 9.233c-.276 0-.496.054-.661.163-.165.109-.285.285-.361.529s-.114.574-.114.991c0 .499.038.891.114 1.176.076.285.198.489.366.612s.395.185.682.185c.282 0 .505-.055.67-.163.164-.109.283-.286.356-.533.073-.246.11-.584.11-1.013 0-.493-.039-.881-.115-1.163S48.4 9.534 48.236 9.414C48.071 9.293 47.842 9.233 47.549 9.233L47.549 9.233zM54.8 12.792l-.097 1.066h-3.197l.079-1.683-.079-3.999h1.453l-.079 3.858.026.652h1.806L54.8 12.792 54.8 12.792zM59.259 12.792l-.097 1.066h-3.197l.079-1.683-.079-3.999h1.453l-.08 3.858.026.652h1.806L59.259 12.792 59.259 12.792zM62.556 8.088c.81 0 1.435.242 1.875.727s.661 1.173.661 2.065c0 .975-.241 1.73-.722 2.268-.482.538-1.16.806-2.035.806-.805 0-1.427-.248-1.867-.744-.44-.496-.661-1.199-.661-2.109 0-.963.239-1.706.718-2.228C61.003 8.35 61.681 8.088 62.556 8.088L62.556 8.088zM62.432 9.233c-.276 0-.496.054-.66.163-.164.109-.285.285-.361.529-.077.244-.114.574-.114.991 0 .499.038.891.114 1.176.076.285.198.489.365.612s.396.185.683.185c.282 0 .505-.055.67-.163.164-.109.283-.286.356-.533.073-.246.11-.584.11-1.013 0-.493-.039-.881-.115-1.163s-.196-.483-.36-.604C62.954 9.293 62.726 9.233 62.432 9.233L62.432 9.233zM71.814 13.857h-1.506l-.714-2.449h-.088l-.705 2.449h-1.515l-1.488-5.681h1.392l.088.775.819 3.452h.088l.837-2.871L68.67 8.176h1.444l.123.917.854 3.311h.088l.961-3.373.149-.854h1.32L71.814 13.857 71.814 13.857zM81.199 11.057l-.009.819c.006.664-.198 1.175-.612 1.533-.414.358-1.003.537-1.766.537-.74 0-1.306-.176-1.695-.528-.391-.352-.577-.857-.56-1.515l.018-.863L76.54 8.176h1.427l-.062 3.532c-.006.375.07.651.229.828.159.176.405.264.74.264.341 0 .592-.086.753-.26.161-.173.239-.439.233-.797l-.062-3.567h1.453L81.199 11.057 81.199 11.057zM84.883 8.088c.506 0 1.016.1 1.532.299l-.229 1.198-.211.079c-.224-.147-.447-.261-.67-.344-.223-.082-.417-.123-.581-.123-.194 0-.348.048-.463.145-.114.097-.171.21-.171.339 0 .147.071.271.215.374.145.103.372.225.684.366.328.153.594.292.797.418.202.126.379.295.528.506s.225.47.225.775c0 .341-.093.649-.277.925-.186.276-.448.495-.789.656-.34.161-.733.242-1.18.242-.593 0-1.181-.117-1.762-.352l.203-1.277.149-.088c.246.205.515.365.806.48.291.114.542.172.753.172.224 0 .393-.05.507-.15s.172-.217.172-.353c0-.158-.073-.291-.221-.396-.146-.106-.376-.229-.687-.37-.317-.146-.577-.283-.779-.41-.203-.126-.378-.295-.524-.506s-.22-.47-.22-.775c0-.347.092-.659.277-.938.185-.279.443-.498.774-.656C84.074 8.167 84.454 8.088 84.883 8.088L84.883 8.088zM92.181 8.088c.811 0 1.436.242 1.876.727s.66 1.173.66 2.065c0 .975-.241 1.73-.722 2.268-.482.538-1.16.806-2.035.806-.804 0-1.427-.248-1.867-.744-.44-.496-.66-1.199-.66-2.109 0-.963.239-1.706.718-2.228C90.629 8.35 91.306 8.088 92.181 8.088L92.181 8.088zM92.057 9.233c-.275 0-.496.054-.66.163-.164.109-.285.285-.361.529s-.114.574-.114.991c0 .499.038.891.114 1.176.076.285.198.489.365.612.168.124.396.185.683.185.282 0 .506-.055.67-.163.164-.109.283-.286.356-.533.073-.246.11-.584.11-1.013 0-.493-.038-.881-.114-1.163-.077-.282-.197-.483-.361-.604C92.579 9.293 92.351 9.233 92.057 9.233L92.057 9.233zM100.911 12.061l.053 1.797h-1.55l-2.018-3.515h-.088L97.3 11.858l.053 2h-1.295l.071-1.673-.071-4.008H97.6l2.025 3.515h.089l-.036-3.461 1.313-.08L100.911 12.061 100.911 12.061z"/><path fill="#FFF" d="M42.085 8.968l-.026 1.321h.714l.986-.026.08.105-.088 1.057-1.083-.026h-.625l-.009.308.053 1.823H40.65l.079-1.682L40.65 7.849h3.558l.08.106L44.19 9.012l-1.374-.053L42.085 8.968 42.085 8.968zM47.672 7.761c.811 0 1.436.242 1.876.727s.661 1.173.661 2.065c0 .975-.241 1.73-.722 2.268-.481.538-1.16.806-2.035.806-.804 0-1.427-.248-1.867-.744-.44-.496-.66-1.199-.66-2.109 0-.963.239-1.706.718-2.228C46.121 8.022 46.797 7.761 47.672 7.761L47.672 7.761zM47.549 8.906c-.276 0-.496.054-.661.163-.165.109-.285.285-.361.529s-.114.574-.114.991c0 .499.038.891.114 1.176.076.285.198.489.366.612s.395.185.682.185c.282 0 .505-.055.67-.163.164-.108.283-.286.356-.533s.11-.584.11-1.013c0-.493-.039-.881-.115-1.163S48.4 9.207 48.236 9.086C48.071 8.966 47.842 8.906 47.549 8.906L47.549 8.906zM54.8 12.464l-.097 1.066h-3.197l.079-1.682-.079-3.999h1.453l-.079 3.858.026.652h1.806L54.8 12.464 54.8 12.464zM59.259 12.464l-.097 1.066h-3.197l.079-1.682-.079-3.999h1.453l-.08 3.858.026.652h1.806L59.259 12.464 59.259 12.464zM62.556 7.761c.81 0 1.435.242 1.875.727s.661 1.173.661 2.065c0 .975-.241 1.73-.722 2.268-.482.538-1.16.806-2.035.806-.805 0-1.427-.248-1.867-.744-.44-.496-.661-1.199-.661-2.109 0-.963.239-1.706.718-2.228C61.003 8.022 61.681 7.761 62.556 7.761L62.556 7.761zM62.432 8.906c-.276 0-.496.054-.66.163-.164.109-.285.285-.361.529-.077.244-.114.574-.114.991 0 .499.038.891.114 1.176.076.285.198.489.365.612s.396.185.683.185c.282 0 .505-.055.67-.163.164-.108.283-.286.356-.533s.11-.584.11-1.013c0-.493-.039-.881-.115-1.163s-.196-.483-.36-.604C62.954 8.966 62.726 8.906 62.432 8.906L62.432 8.906zM71.814 13.53h-1.506l-.714-2.449h-.088l-.705 2.449h-1.515l-1.488-5.681h1.392l.088.775.819 3.453h.088l.837-2.872L68.67 7.849h1.444l.123.917.854 3.312h.088l.961-3.374.149-.854h1.32L71.814 13.53 71.814 13.53zM81.199 10.729l-.009.819c.006.664-.198 1.175-.612 1.533-.414.358-1.003.538-1.766.538-.74 0-1.306-.177-1.695-.529-.391-.352-.577-.857-.56-1.515l.018-.863L76.54 7.849h1.427l-.062 3.532c-.006.375.07.651.229.828.159.176.405.264.74.264.341 0 .592-.086.753-.26.161-.173.239-.439.233-.797l-.062-3.567h1.453L81.199 10.729 81.199 10.729zM84.883 7.761c.506 0 1.016.1 1.532.299l-.229 1.198-.211.079c-.224-.147-.447-.261-.67-.344-.223-.082-.417-.123-.581-.123-.194 0-.348.048-.463.145-.114.097-.171.21-.171.339 0 .147.071.271.215.374.145.103.372.225.684.366.328.153.594.292.797.418.202.126.379.295.528.506s.225.47.225.775c0 .34-.093.648-.277.924-.186.276-.448.495-.789.656-.34.161-.733.243-1.18.243-.593 0-1.181-.118-1.762-.353l.203-1.277.149-.088c.246.205.515.365.806.48.291.114.542.172.753.172.224 0 .393-.05.507-.15s.172-.217.172-.352c0-.159-.073-.291-.221-.396-.146-.106-.376-.229-.687-.37-.317-.146-.577-.283-.779-.41-.203-.126-.378-.295-.524-.506-.146-.211-.22-.47-.22-.775 0-.347.092-.659.277-.938.185-.279.443-.498.774-.656C84.074 7.84 84.454 7.761 84.883 7.761L84.883 7.761zM92.181 7.761c.811 0 1.436.242 1.876.727s.66 1.173.66 2.065c0 .975-.241 1.73-.722 2.268-.482.538-1.16.806-2.035.806-.804 0-1.427-.248-1.867-.744-.44-.496-.66-1.199-.66-2.109 0-.963.239-1.706.718-2.228C90.629 8.022 91.306 7.761 92.181 7.761L92.181 7.761zM92.057 8.906c-.275 0-.496.054-.66.163-.164.109-.285.285-.361.529s-.114.574-.114.991c0 .499.038.891.114 1.176.076.285.198.489.365.612.168.124.396.185.683.185.282 0 .506-.055.67-.163s.283-.286.356-.533.11-.584.11-1.013c0-.493-.038-.881-.114-1.163-.077-.282-.197-.483-.361-.604C92.579 8.966 92.351 8.906 92.057 8.906L92.057 8.906zM100.911 11.733l.053 1.797h-1.55l-2.018-3.515h-.088L97.3 11.531l.053 2h-1.295l.071-1.673-.071-4.008H97.6l2.025 3.515h.089l-.036-3.461 1.313-.08L100.911 11.733 100.911 11.733zM47.366 25.633l-.184 2.301H41.28l.153-2.914-.153-7.006h3.127l-.169 6.699.031.705h2.928L47.366 25.633 47.366 25.633zM51.245 24.713l.123 3.221h-3.082l.153-2.914-.153-7.006h3.127L51.245 24.713 51.245 24.713zM62.176 24.697l.122 3.236h-3.342l-2.79-5.305h-.184l-.016 1.717.123 3.588h-2.79l.153-2.914-.153-7.006h3.342l2.791 5.305h.184l-.092-5.197 2.821-.168L62.176 24.697 62.176 24.697zM69.964 22.705c.939 1.473 2.013 3 3.219 4.584l-.046.338c-1.073.234-2.095.398-3.065.49l-.338-.184c-1.042-1.789-1.896-3.307-2.56-4.555l-.031 1.334.123 3.221h-3.082l.153-2.914-.153-7.006h3.128l-.107 4.139 1.901-3.064.521-1.074h3.251L69.964 22.705 69.964 22.705zM80.818 25.48l.168.215-.184 2.238h-6.991l.153-2.914-.153-7.006h7.113l.169.215-.199 2.238-2.438-.092h-1.579l-.031 1.395h1.519l1.594-.045.169.215-.184 2.238-1.779-.047h-1.379l-.016.582.03.859h1.472L80.818 25.48 80.818 25.48zM86.582 17.953c1.462 0 2.583.397 3.365 1.188.782.793 1.173 1.934 1.173 3.428 0 1.768-.455 3.127-1.364 4.076-.909.951-2.213 1.426-3.909 1.426-1.063 0-2.311-.045-3.741-.137l.153-2.914-.153-7.006L86.582 17.953 86.582 17.953zM86.429 25.787c.48 0 .846-.191 1.097-.576.25-.383.375-1.014.375-1.893 0-.746-.051-1.334-.153-1.764-.102-.428-.266-.738-.49-.928-.225-.188-.537-.283-.936-.283-.388 0-.771.021-1.149.063l-.107 4.307.031.951C85.709 25.746 86.153 25.787 86.429 25.787L86.429 25.787zM95.091 24.713l.123 3.221h-3.082l.153-2.914-.153-7.006h3.127L95.091 24.713 95.091 24.713zM106.021 24.697l.123 3.236h-3.342l-2.791-5.305h-.184l-.016 1.717.123 3.588h-2.79l.153-2.914-.153-7.006h3.342l2.79 5.305h.184l-.092-5.197 2.821-.168L106.021 24.697 106.021 24.697z"/><path fill="#005887" d="M0.409,32.336c0,0.674,0.276,1.287,0.72,1.73c0.443,0.443,1.056,0.719,1.73,0.719h117.161 c0.675,0,1.288-0.275,1.731-0.719s0.719-1.057,0.719-1.73l0.409-30.088v30.088c0,0.787-0.321,1.502-0.839,2.02 c-0.519,0.518-1.233,0.84-2.021,0.84H2.859c-0.786,0-1.501-0.322-2.02-0.84S0,33.123,0,32.336V2.248L0.409,32.336L0.409,32.336z"/><path fill="#FFF" d="M12.359,11.268c0,1.031-0.839,1.87-1.871,1.87s-1.871-0.839-1.871-1.87s0.839-1.871,1.871-1.871 S12.359,10.236,12.359,11.268L12.359,11.268L12.359,11.268z M8.618,14.385h3.741v11.223H8.618V14.385L8.618,14.385L8.618,14.385z M14.642,14.385h3.447v1.77h0.051c0.481-0.862,1.655-1.77,3.406-1.77c3.645,0,4.319,2.265,4.319,5.217v6.006h-3.599l0-5.322 c0-1.27-0.028-2.902-1.871-2.902c-1.875,0-2.159,1.381-2.159,2.811v5.418h-3.594V14.385L14.642,14.385L14.642,14.385L14.642,14.385 z"/></svg>