<svg xmlns="http://www.w3.org/2000/svg" width="512" height="512" viewBox="0 0 512 512"><path fill="#3F5EAB" d="M449.732 224.291L256 367.08 62.268 224.291l177.511-177.51c8.959-8.959 23.484-8.959 32.443 0l177.51 177.51z"/><linearGradient id="a" x1="102.648" x2="409.352" y1="405.518" y2="98.814" gradientUnits="userSpaceOnUse"><stop offset="0" stop-color="#0FF"/><stop offset="1" stop-color="#FF7BAC"/></linearGradient><path fill="url(#a)" d="M114.699 86.763h282.602v330.806H114.699z"/><linearGradient id="b" x1="256" x2="256" y1="471.938" y2="348.115" gradientUnits="userSpaceOnUse"><stop offset="0" stop-color="#FFF"/><stop offset=".328" stop-color="#FCFCFC"/><stop offset=".53" stop-color="#F4F4F4"/><stop offset=".698" stop-color="#E5E5E5"/><stop offset=".848" stop-color="#D1D1D1"/><stop offset=".984" stop-color="#B7B7B7"/><stop offset="1" stop-color="#B3B3B3"/></linearGradient><path fill="url(#b)" d="M449.732 348.115v123.823H62.268V348.115"/><path fill="#FFF" d="M62.268 224.291l167.231 123.824L62.268 471.938zM449.732 224.291L282.501 348.115l167.231 123.823zM298.949 290.894c8.68 0 8.694-13.488 0-13.488H160.048c-8.679 0-8.693 13.488 0 13.488h138.901zM353.17 139.198c8.68 0 8.693-13.489 0-13.489H160.048c-8.679 0-8.693 13.489 0 13.489H353.17zM353.17 177.579c8.68 0 8.693-13.489 0-13.489H160.048c-8.679 0-8.693 13.489 0 13.489H353.17zM353.17 215.046c8.68 0 8.693-13.488 0-13.488H160.048c-8.679 0-8.693 13.488 0 13.488H353.17zM353.17 252.513c8.68 0 8.693-13.488 0-13.488H160.048c-8.679 0-8.693 13.488 0 13.488H353.17z"/></svg>